HIERARCHY
ROOT joint_0
{
	OFFSET 0.000000 0.000000 0.000000
	CHANNELS 6 Xposition Yposition Zposition Zrotation Yrotation Xrotation 
	JOINT joint_1
	{
		OFFSET 1.363060 -1.794630 0.839290
		CHANNELS 3 Zrotation Yrotation Xrotation
		JOINT joint_2
		{
			OFFSET 2.448110 -6.726130 0.000000
			CHANNELS 3 Zrotation Yrotation Xrotation
			JOINT joint_3
			{
				OFFSET 2.562200 -7.039590 0.000000
				CHANNELS 3 Zrotation Yrotation Xrotation
				JOINT joint_4
				{
					OFFSET 0.157640 -0.433110 2.322550
					CHANNELS 3 Zrotation Yrotation Xrotation
					End Site
					{
						OFFSET 0.000000 0.000000 0.000000
					}
				}
			}
		}
	}
	JOINT joint_5
	{
		OFFSET -1.305520 -1.794630 0.839290
		CHANNELS 3 Zrotation Yrotation Xrotation
		JOINT joint_6
		{
			OFFSET -2.542530 -6.985550 0.000000
			CHANNELS 3 Zrotation Yrotation Xrotation
			JOINT joint_7
			{
				OFFSET -2.568260 -7.056230 0.000000
				CHANNELS 3 Zrotation Yrotation Xrotation
				JOINT joint_8
				{
					OFFSET -0.164730 -0.452590 2.363150
					CHANNELS 3 Zrotation Yrotation Xrotation
					End Site
					{
						OFFSET 0.000000 0.000000 0.000000
					}
				}
			}
		}
	}
	JOINT joint_9
	{
		OFFSET 0.028270 2.035590 -0.193380
		CHANNELS 3 Zrotation Yrotation Xrotation
		JOINT joint_10
		{
			OFFSET 0.056720 2.048850 -0.042750
			CHANNELS 3 Zrotation Yrotation Xrotation
			JOINT joint_11
			{
				OFFSET -0.054170 1.746240 0.172020
				CHANNELS 3 Zrotation Yrotation Xrotation
				JOINT joint_12
				{
					OFFSET 0.104070 1.761360 -0.123970
					CHANNELS 3 Zrotation Yrotation Xrotation
					End Site
					{
						OFFSET 0.000000 0.000000 0.000000
					}
				}
			}
			JOINT joint_13
			{
				OFFSET 3.362410 1.200890 -0.311210
				CHANNELS 3 Zrotation Yrotation Xrotation
				JOINT joint_14
				{
					OFFSET 4.983000 -0.000000 -0.000000
					CHANNELS 3 Zrotation Yrotation Xrotation
					JOINT joint_15
					{
						OFFSET 3.483560 -0.000000 -0.000000
						CHANNELS 3 Zrotation Yrotation Xrotation
						JOINT joint_16
						{
							OFFSET 0.000000 0.000000 0.000000
							CHANNELS 3 Zrotation Yrotation Xrotation
							End Site
							{
								OFFSET 0.000000 0.000000 0.000000
							}
						}
					}
				}
			}
			JOINT joint_17
			{
				OFFSET -3.136600 1.374050 -0.404650
				CHANNELS 3 Zrotation Yrotation Xrotation
				JOINT joint_18
				{
					OFFSET -5.241900 -0.000000 -0.000000
					CHANNELS 3 Zrotation Yrotation Xrotation
					JOINT joint_19
					{
						OFFSET -3.444170 -0.000000 -0.000000
						CHANNELS 3 Zrotation Yrotation Xrotation
						JOINT joint_20
						{
							OFFSET 0.000000 0.000000 0.000000
							CHANNELS 3 Zrotation Yrotation Xrotation
							End Site
							{
								OFFSET 0.000000 0.000000 0.000000
							}
						}
					}
				}
			}
		}
	}
}
MOTION
Frames: 16
Frame Time: 0.031667
-9.504039 13.213994 1.398569 -12.802456 78.930977 -3.364663 -4.398571 7.864874 -47.288757 -12.484548 19.286643 35.701307 5.940846 6.644180 4.054163 1.041080 1.847303 6.258049 3.260617 -12.419166 -21.890174 0.879624 -20.238685 68.585597 -9.949296 -1.043956 -4.753300 -8.412741 -7.749200 25.166969 1.702540 -3.033654 -6.032952 -5.796679 -4.838155 -9.062314 4.619271 2.083921 14.514073 3.275133 -0.841166 -29.284122 -75.128556 -74.087321 14.269787 26.181881 -39.481386 -12.446511 7.533132 -1.134746 -5.015311 -6.985108 -0.000009 -0.008038 57.453366 73.693349 42.848898 -40.708515 35.431770 -26.331009 -11.888514 -0.208264 3.442953 6.952718 0.006835 0.041892 
-9.044865 13.234505 1.380784 -15.252708 78.662460 -5.019760 -4.296887 8.298769 -49.330601 -12.521209 20.164715 38.367580 6.937468 6.250941 3.849865 1.242470 2.051558 6.647346 3.162849 -12.212683 -21.343668 1.117780 -20.595870 69.090785 -5.302357 -0.151050 -5.769220 -7.729050 -6.932552 21.819263 1.328365 -2.220886 -6.264779 -5.407117 -4.356723 -9.177227 5.086543 2.210625 14.524945 4.063034 -0.426029 -29.111489 -78.883405 -73.887969 17.863065 26.330627 -38.904361 -12.689645 7.371193 -1.017688 -3.890018 -6.992676 -0.002287 -0.009859 58.837046 71.033114 43.246009 -41.351591 34.924304 -26.995537 -11.936601 -0.316275 2.661168 6.964775 0.005802 0.038318 
-8.582102 13.253814 1.375227 -16.009581 78.725639 -5.274573 -4.269713 8.772010 -50.849498 -12.514738 20.904296 40.573506 3.580254 5.494446 3.701441 1.395533 2.366177 7.313270 3.003921 -11.872974 -20.681634 1.574503 -20.785679 69.174360 -0.914797 0.546794 -5.341229 -6.555369 -6.538239 19.095942 1.388507 -1.464183 -6.439002 -4.835163 -4.204751 -9.467342 5.144299 2.503742 14.704485 4.930063 -0.026996 -28.961054 -82.059976 -73.476914 23.190984 25.957681 -38.426409 -12.377830 6.866492 -0.569033 -3.174464 -6.994503 -0.005524 -0.010997 62.594306 68.146648 45.905507 -41.431275 34.891694 -27.240748 -11.900646 -0.380325 2.814409 6.970953 0.005456 0.034921 
-8.108243 13.300405 1.390545 -14.743326 79.047958 -3.570675 -4.293337 9.450670 -51.964772 -12.289942 21.407382 42.510582 -2.216840 4.587503 3.513644 1.476108 2.716602 8.040807 2.461330 -11.524994 -19.998148 2.041826 -21.069622 68.761461 -0.675465 0.462521 -4.525715 -4.873544 -6.949551 18.192414 1.214569 -1.059747 -6.632185 -4.324344 -4.283024 -9.334948 4.617224 2.915439 14.891243 5.864674 0.362298 -28.761896 -83.300229 -72.843872 27.711659 24.978944 -37.803475 -11.490481 6.516820 -0.150595 -2.498186 -6.987961 -0.009443 -0.011830 66.255376 65.304743 48.239109 -41.153379 35.008285 -27.118402 -11.862430 -0.482230 2.491475 6.968607 0.005104 0.032369 
-7.625435 13.354099 1.398971 -12.545284 79.557106 -1.045868 -4.084111 10.069910 -52.810271 -12.264114 21.889182 44.254332 -9.648931 3.799397 3.230714 1.509446 2.982387 8.497214 2.157565 -11.030802 -19.525706 2.893595 -21.298121 68.768926 0.259927 -0.367369 -3.167139 -2.912268 -8.834537 21.177043 0.920787 -0.564983 -6.915350 -4.065951 -4.273747 -8.902260 4.018478 3.359030 14.563449 6.917009 0.711488 -28.386212 -81.968076 -71.951760 29.879178 23.885776 -37.233226 -10.665922 6.520070 0.210252 -2.132409 -6.975200 -0.013640 -0.012672 68.860751 62.512617 49.500409 -40.525572 35.291024 -26.779715 -11.851539 -0.725103 1.666045 6.961214 0.004150 0.033373 
-7.136471 13.432327 1.396847 -12.834898 80.075310 -0.522212 -4.018067 10.619119 -52.932262 -12.171841 22.385711 45.660832 -16.013906 3.185292 3.593521 1.573068 3.034100 8.320628 1.834675 -10.429776 -19.358667 3.185457 -21.585025 69.138358 0.701120 -1.829350 -1.404776 -1.025379 -12.407410 28.849688 1.311791 -0.381137 -7.087657 -3.779825 -4.028720 -8.374145 3.440821 3.700308 14.277335 8.200819 0.975103 -27.932405 -80.303682 -71.049533 32.912930 22.803814 -36.841241 -10.030458 6.518686 0.467373 -1.805351 -6.960039 -0.018276 -0.014004 69.760643 59.891695 49.182143 -40.102479 35.686366 -26.518945 -11.747738 -0.854832 0.384127 6.952325 0.002093 0.038164 
-6.670526 13.501952 1.377144 -15.472880 80.590347 -2.654320 -3.886751 11.105097 -52.495816 -12.195587 22.946529 47.121741 -19.133829 2.485366 4.480321 1.718835 2.867068 7.491440 1.571252 -9.728031 -19.042784 3.250698 -21.626192 70.060160 0.928054 -3.237919 0.458417 0.670305 -16.446319 37.825864 1.430497 -0.221603 -7.632861 -3.598680 -3.982441 -7.965227 3.260917 4.072960 14.279968 9.818651 1.118148 -27.412297 -79.114552 -69.838302 36.155121 22.117112 -36.451770 -9.427070 6.265171 0.958947 -1.447476 -6.947415 -0.022857 -0.015715 69.562171 57.380870 48.256861 -40.076132 36.061425 -26.086827 -12.057488 -1.005581 -0.757120 6.945805 -0.000310 0.043024 
-6.211817 13.555721 1.369746 -18.887506 81.359276 -5.776923 -3.732060 11.315140 -52.381796 -12.650718 23.112247 48.746555 -17.492919 1.766239 6.366518 1.992884 2.568740 6.278474 1.582454 -8.742348 -19.370527 3.748193 -21.758167 71.143141 1.329445 -4.624896 2.341870 2.041216 -20.399835 46.751323 1.447343 0.129892 -8.124402 -3.360398 -3.923385 -7.460284 2.664933 3.959518 14.516042 11.408017 1.123358 -26.800662 -75.657015 -68.420395 32.152613 21.825840 -36.175154 -9.245003 6.094335 1.312204 -1.270214 -6.940548 -0.026333 -0.017170 69.083545 55.263091 47.264527 -40.589004 36.355249 -26.179434 -12.585198 -1.302871 0.596166 6.944056 -0.002120 0.045494 
-5.754084 13.606577 1.388607 -22.488663 82.385277 -9.056768 -4.665645 11.804557 -52.337441 -12.878737 23.299203 49.964545 -11.816078 1.400832 9.623628 2.380110 2.199592 4.889569 1.596370 -7.700553 -19.816245 4.184752 -22.053235 71.776744 1.500257 -5.984596 3.595492 3.105243 -23.844458 54.582180 1.532540 0.626461 -8.418362 -3.526386 -3.979247 -7.386141 1.997554 3.710990 14.516674 12.908363 0.997918 -26.191597 -73.121014 -67.238534 31.477302 21.882478 -35.570157 -9.756994 5.986627 1.518565 -1.218851 -6.936851 -0.028206 -0.017863 68.161081 53.947163 46.988635 -41.115055 36.338126 -26.364455 -12.842902 -1.477804 3.298347 6.943610 -0.002883 0.044898 
-5.301321 13.663393 1.430833 -25.437986 83.286415 -11.655134 -7.156863 12.000281 -53.805724 -12.824180 23.308797 50.847613 -7.768091 1.770384 5.786157 2.826179 1.843653 3.607025 2.028316 -6.638119 -20.179237 3.907867 -22.293422 72.826646 1.823811 -6.699241 4.343952 3.902955 -26.335177 60.227659 1.614499 0.768923 -8.456752 -3.794217 -3.806061 -7.656920 1.570410 3.444576 14.301672 14.623780 0.788774 -25.501187 -73.019497 -66.760455 32.422123 22.298491 -34.602575 -10.664234 5.558689 2.022532 -0.505007 -6.937523 -0.028777 -0.018051 67.992908 53.196430 47.818049 -41.330055 36.187094 -26.381233 -12.682813 -1.351462 3.920605 6.945580 -0.003138 0.044031 
-4.854264 13.730706 1.477207 -27.362179 84.278252 -13.071217 -9.998028 12.045927 -56.624269 -12.103114 23.207241 51.747412 -5.324909 2.124525 0.432492 3.296993 1.488665 2.341378 2.054713 -5.425200 -20.789130 3.328074 -22.597421 74.421379 2.304254 -6.725198 4.084729 4.523087 -27.784709 63.366909 1.608966 0.902946 -8.784889 -3.662709 -3.590989 -7.482515 0.606647 3.218580 14.046611 16.545126 0.575560 -24.703577 -74.315231 -66.938149 34.140233 22.814662 -33.463255 -11.398456 5.387078 2.381042 0.916328 -6.942725 -0.027931 -0.017758 67.685788 52.999464 48.682583 -41.749856 36.040292 -26.594885 -12.377701 -1.257988 2.621907 6.950938 -0.003329 0.044410 
-4.434174 13.791907 1.522553 -32.812950 85.215744 -18.129774 -11.528211 11.772000 -57.396340 -11.568851 22.883693 52.346700 -4.551978 2.677429 -2.435694 3.761509 1.168098 1.180810 2.467421 -4.616081 -22.416249 3.205936 -23.268238 75.447219 2.632795 -6.124831 3.904196 4.967825 -27.956386 63.323251 0.967517 1.142353 -8.394944 -3.810487 -3.812232 -7.590142 0.014442 2.573282 14.081730 18.321696 0.280419 -24.059415 -75.770075 -67.461553 35.864668 23.265199 -32.894348 -12.316264 5.669297 2.712469 1.792119 -6.944848 -0.027000 -0.017030 67.200319 53.552143 48.909673 -41.612094 35.760777 -26.517593 -12.244158 -1.192348 2.204202 6.952123 -0.002553 0.044426 
-4.034414 13.848228 1.565736 -39.149872 85.516022 -24.179087 -9.582354 11.138282 -54.627252 -11.042398 22.500308 52.773279 -4.060908 2.635290 0.708290 4.243089 0.980616 0.398955 2.143403 -4.759464 -24.388316 2.214672 -23.335082 76.206524 2.602536 -5.301696 4.340560 5.130832 -26.857870 60.188488 1.090047 1.265243 -8.157488 -2.797035 -3.979534 -6.984485 -0.796030 2.319705 13.504711 20.372678 -0.267170 -23.848437 -78.006013 -68.524870 38.003617 24.282277 -32.302608 -14.312997 5.034752 2.433364 2.433817 -6.945700 -0.027004 -0.015473 66.031318 54.723001 48.472053 -40.910487 35.093259 -25.701787 -12.459424 -1.115640 2.048945 6.949359 -0.001345 0.044934 
-3.661366 13.910210 1.598949 -50.529392 85.616112 -35.274521 -7.216768 11.171458 -52.295231 -11.393480 22.035111 53.465829 -3.582629 2.801859 4.037651 4.755450 1.022465 0.254916 1.750939 -5.514568 -25.167400 1.310437 -22.979258 76.511581 2.358006 -4.367106 3.774677 5.180899 -25.062442 55.527884 0.956288 1.457486 -8.205799 -2.213818 -3.765995 -6.960528 -1.330221 1.821942 13.372709 22.640001 -0.767343 -23.829318 -77.598517 -69.621928 38.094379 24.939799 -31.957912 -16.182323 6.219806 2.853000 2.480961 -6.951749 -0.029706 -0.014104 66.438917 56.186721 47.765036 -39.694454 34.809209 -25.143555 -12.264303 -1.497598 -0.680314 6.951549 0.000645 0.042201 
-3.304685 13.968498 1.626381 -61.906971 85.509636 -46.461094 -6.865818 11.568353 -51.298689 -10.150612 21.939527 54.710259 -3.620421 2.899665 7.253215 5.270311 1.039377 0.023152 2.227262 -6.127273 -27.557544 0.428941 -22.735009 76.083110 1.907040 -2.856977 2.750642 5.011965 -22.699886 49.785041 1.550873 1.633199 -7.916665 -2.116893 -3.814670 -7.568356 -1.451044 2.297272 12.509071 24.532841 -0.971395 -23.391796 -74.252988 -71.124017 34.883081 24.899463 -32.088539 -17.391455 6.826582 2.391975 1.744324 -6.946127 -0.031459 -0.012930 66.739377 57.738663 46.769614 -38.475521 34.336826 -25.261755 -12.264293 -1.431701 -2.686004 6.943210 0.001836 0.039662 
-2.961126 14.028904 1.650556 -71.269341 85.145607 -55.439491 -5.692180 11.461040 -49.512550 -8.555369 20.880896 56.856366 -3.713911 2.599610 6.128324 5.469938 0.791285 -0.639258 2.545862 -6.650743 -29.439427 -1.584884 -22.658094 75.191333 1.542239 -1.973394 1.951343 4.485562 -19.710492 42.913594 2.320869 1.181753 -7.499345 -1.500642 -3.631050 -6.559653 -1.168485 2.116894 11.934376 24.848640 -1.138826 -21.837792 -67.380875 -71.833147 29.683401 25.300069 -31.497971 -18.130751 6.388411 2.712908 -0.299064 -6.953066 -0.027231 -0.013048 67.933082 59.114276 47.744798 -37.732202 34.615235 -24.088325 -11.978104 -1.512526 -2.770040 6.947372 0.001133 0.030580 
